<svg xmlns="http://www.w3.org/2000/svg" xml:space="preserve" width="192" height="192" data-version="2">
    <path fill="#2c3ad1" d="M64.47 32.64h28.64q16.79 0 26.41 6.85 9.63 6.85 9.63 21.33 0 8.78-4.01 15.25-4 6.46-11.16 10.16t-16.86 4.16l-2.16-7.7q11.24.31 20.17 4 8.94 3.7 14.17 10.32 5.24 6.62 5.24 15.71 0 8.31-3.08 14.24t-8.32 9.7q-5.23 3.78-11.86 5.55-6.62 1.77-13.7 1.77H64.47zm14.94 48.82h16.78q9.24 0 13.4-5.16t4.16-12.55q0-8.78-5.39-12.79-5.39-4-14.48-4H79.41zm0 48.66h17.4q6.16 0 11.32-1.85t8.16-5.7q3-3.85 3-9.7 0-6.47-3.46-10.16-3.47-3.7-8.86-5.32-5.39-1.61-11.09-1.61H79.41z" paint-order="stroke"/>
    <rect width="70.07" height="111.34" x="-35.035" y="-55.67" fill="none" rx="0" ry="0" transform="translate(100.005 88.81)"/>
</svg>
